<svg width="800" height="744" viewBox="0 0 800 744" fill="none" xmlns="http://www.w3.org/2000/svg">
<path d="M486.871 603.63L494.173 620.004C488.237 619.059 482.717 624.129 482.593 630.639C482.469 637.149 487.763 643.922 493.7 644.848C492.565 649.902 487.669 652.131 483.42 654.174C479.17 656.217 474.59 659.605 474.906 664.991C475.16 669.315 478.736 673.133 482.534 674.668C486.331 676.203 490.316 675.967 494.162 675.71C488.334 681.806 487.766 693.266 492.884 701.487C498.003 709.709 508.224 713.756 515.878 710.591C510.47 717.319 511.645 729.638 518.357 736.581C525.122 743.579 534.928 744.257 543.499 743.519C565.328 741.674 586.128 733.431 603.295 719.823C609.848 714.615 615.969 708.492 619.707 700.504C623.445 692.516 624.547 682.402 621.065 673.312C622.004 684.699 633.401 693.693 643.655 694.196C653.908 694.699 662.86 688.924 670.468 682.338C680.585 673.58 689.952 661.303 688.563 646.156C687.876 638.657 684.601 631.445 681.388 624.459L675.16 610.915C672.646 605.448 670.075 599.888 666.29 595.3C662.506 590.711 657.254 587.159 651.997 587.193C653.199 581.702 654.406 576.007 653.399 570.173C652.392 564.34 648.535 558.299 643.29 556.933C636.615 555.194 630.958 561.354 624.246 560.774C617.786 560.215 612.448 553.732 606.175 551.163C603.592 550.046 600.74 549.707 597.967 550.187C595.195 550.666 592.622 551.944 590.565 553.863C586.588 557.745 584.931 564.304 586.358 570.51C587.608 575.946 590.934 580.74 592.953 585.983C594.973 591.226 595.286 597.967 591.408 600.83C586.729 604.286 579.606 599.584 575.951 593.896C572.295 588.208 570.196 581.32 565.573 576.537C560.117 570.891 551.576 569.568 545.958 573.498C540.34 577.428 538.192 586.23 541.024 593.712C543.34 599.829 548.644 606.018 546.805 611.779C544.86 617.867 536.352 617.096 531.22 612.793C526.087 608.49 522.68 602.009 517.61 597.61C512.461 593.142 505.738 591.184 499.836 592.434C496.841 593.129 494.07 594.567 491.778 596.615C489.486 598.663 487.747 601.255 486.721 604.152" fill="#E6E6E6"/>
<path d="M605.1 557.617L589.948 564.656C587.671 565.781 585.087 566.129 582.593 565.648C580.394 565.128 578.907 563.783 578.517 561.957L574.991 545.49C574.325 542.384 576.898 538.708 581.108 536.752L589.475 532.865C593.685 530.909 598.153 531.313 600.098 533.825L610.409 547.139C611.553 548.615 611.622 550.619 610.601 552.635C609.36 554.852 607.428 556.601 605.1 557.617Z" fill="#3F3D56"/>
<path d="M62.2932 253.839C79.1157 205.629 105.368 161.628 139.369 124.654C168.217 93.2976 213.113 94.6005 213.113 94.6005L213.369 94.2672C224.174 80.315 238.674 70.0147 255.049 64.6585C271.424 59.3022 288.945 59.1287 305.414 64.1595C309.694 65.4457 312.987 66.0158 314.553 65.4429C343.102 54.9805 341.761 31.3659 366.393 12.3421C409.522 -20.9674 552.576 17.188 572.748 78.4815C589.097 128.159 662.075 152.237 689.34 190.235C693.603 196.177 697.786 202.187 701.889 208.267C703.812 211.091 705.714 213.937 707.595 216.804C726.912 246.095 744.241 276.77 759.455 308.603C769.432 329.401 778.103 350.858 785.413 372.838C813.847 459.875 804.124 524.722 725.722 508.702C716.441 506.8 707.383 505.099 698.548 503.598C685.754 501.412 673.407 499.615 661.506 498.208C645.479 496.3 630.232 495.05 615.765 494.457C610.9 494.252 606.125 494.115 601.439 494.045C532.151 493.039 480.756 506.694 441.602 527.89C434.965 531.475 428.675 535.266 422.733 539.265C413.657 545.34 404.991 552.062 396.796 559.383C385.456 569.573 374.999 580.793 365.546 592.911L365.027 593.577C319.231 652.232 304.16 717.165 272.304 728.598C136.13 777.479 50.0048 600.284 41.1725 426.949C40.7266 418.214 40.4802 409.505 40.4335 400.82C40.4059 396.939 40.4241 393.067 40.4882 389.206C40.6279 379.132 41.0521 369.124 41.7623 359.236C42.0275 355.456 42.3352 351.696 42.6852 347.955C43.071 343.922 43.4907 339.912 43.9757 335.928C47.4399 306.722 53.5001 278.935 62.2932 253.839Z" fill="#3F3D56"/>
<path d="M492.668 330.395C483.459 334.682 483.307 353.885 486.195 360.107L491.428 371.37L524.783 355.873L519.55 344.61C516.657 338.39 501.883 326.122 492.668 330.395Z" fill="#1A73E8"/>
<path d="M403.033 492.092C402.446 492.092 401.868 491.951 401.347 491.68C400.827 491.408 400.38 491.016 400.043 490.535C399.707 490.054 399.491 489.499 399.415 488.917C399.339 488.335 399.405 487.743 399.606 487.192C399.769 486.741 400.02 486.328 400.344 485.975C400.669 485.622 401.06 485.337 401.495 485.137L573.751 405.105C574.185 404.903 574.655 404.788 575.133 404.768C575.612 404.748 576.089 404.822 576.539 404.986C576.989 405.151 577.402 405.402 577.755 405.726C578.107 406.05 578.393 406.44 578.594 406.874C579.001 407.752 579.043 408.754 578.711 409.662C578.379 410.57 577.7 411.31 576.824 411.718L404.568 491.75C404.087 491.975 403.564 492.092 403.033 492.092Z" fill="#3F3D56"/>
<path d="M537.776 363.055L488.537 385.932L565.776 552.175L615.015 529.298L537.776 363.055Z" fill="#E6E6E6"/>
<path d="M352.938 153.783C343.729 158.071 343.578 177.274 346.465 183.496L351.698 194.758L385.053 179.261L379.82 167.999C376.927 161.779 362.153 149.51 352.938 153.783Z" fill="#1A73E8"/>
<path d="M559.266 576.728L544.115 583.767C541.837 584.892 539.254 585.24 536.76 584.759C534.56 584.239 533.074 582.894 532.683 581.068L529.157 564.601C528.492 561.495 531.064 557.819 535.274 555.864L543.642 551.976C547.852 550.02 552.32 550.424 554.264 552.936L564.575 566.25C565.719 567.726 565.788 569.73 564.767 571.746C563.527 573.963 561.595 575.713 559.266 576.728Z" fill="#3F3D56"/>
<path d="M512.682 599.84L497.53 606.879C495.253 608.004 492.67 608.352 490.175 607.871C487.976 607.351 486.489 606.006 486.099 604.18L482.573 587.713C481.908 584.607 484.48 580.932 488.69 578.976L497.058 575.088C501.268 573.132 505.736 573.536 507.68 576.048L517.991 589.362C519.135 590.838 519.204 592.842 518.183 594.858C516.943 597.075 515.01 598.825 512.682 599.84Z" fill="#3F3D56"/>
<path d="M411.185 214.722L361.946 237.599L518.075 573.64L567.314 550.763L411.185 214.722Z" fill="#E6E6E6"/>
<path d="M462.275 387.95L456.75 375.793L459.93 374.326L465.438 386.445L545.198 563.292L542.021 564.768" fill="#3F3D56"/>
<path d="M524.59 377.845L519.065 365.688L522.246 364.221L527.754 376.339L607.514 553.187L604.337 554.663" fill="#3F3D56"/>
<path d="M434.425 241.615L367.709 272.612C363.461 266.004 350.657 232.14 353.532 222.093L351.374 212.512L397.44 191.109L403.606 198.694C412.759 201.502 430.577 233.309 434.425 241.615Z" fill="#E6E6E6"/>
<path d="M399.365 191.519L351.827 213.605C350.073 214.42 348.204 214.121 347.654 212.936C347.575 212.765 347.526 212.582 347.509 212.394L345.049 186.148C344.943 185.024 345.905 183.75 347.374 183.068L378.899 168.42C380.368 167.738 381.962 167.824 382.753 168.63L401.225 187.437C402.17 188.399 401.657 190.046 400.079 191.115C399.852 191.268 399.614 191.403 399.365 191.519Z" fill="#E6E6E6"/>
<path d="M436.65 397.152C436.136 397.153 435.623 397.093 435.123 396.971C434.418 396.825 433.756 396.52 433.187 396.078C432.618 395.637 432.158 395.071 431.842 394.424L402.778 331.87C401.576 329.28 403.19 325.969 406.378 324.487L448.935 304.715C452.123 303.233 455.694 304.136 456.898 306.725L485.961 369.279C486.252 369.938 486.387 370.655 486.358 371.374C486.329 372.094 486.135 372.797 485.792 373.43C485.046 374.863 483.837 376.002 482.361 376.662L439.805 396.434C438.818 396.899 437.742 397.144 436.65 397.152Z" fill="#1A73E8"/>
<path d="M442.47 406.62L393.232 429.497L470.47 595.74L519.709 572.863L442.47 406.62Z" fill="#E6E6E6"/>
<path d="M381.809 194.261L367.369 200.969C364.583 202.264 360.824 200.107 358.991 196.161C357.158 192.216 357.933 187.952 360.72 186.657L375.159 179.948C377.946 178.654 381.705 180.811 383.538 184.756C385.371 188.702 384.595 192.966 381.809 194.261Z" fill="#3F3D56"/>
<path d="M398.323 373.513C389.114 377.8 388.963 397.004 391.85 403.226L397.083 414.488L430.438 398.991L425.205 387.729C422.312 381.509 407.538 369.24 398.323 373.513Z" fill="#1A73E8"/>
<path d="M245.357 335.182C242.104 337.349 238.776 332.191 242.091 330.121C245.343 327.954 248.671 333.111 245.357 335.182Z" fill="#E6E6E6"/>
<path d="M583.883 261.077C580.631 263.243 577.302 258.086 580.617 256.015C583.869 253.849 587.197 259.006 583.883 261.077Z" fill="#E6E6E6"/>
<path d="M353.146 320.024C349.894 322.191 346.565 317.033 349.88 314.963C353.132 312.796 356.461 317.953 353.146 320.024Z" fill="#E6E6E6"/>
<path d="M245.357 522.129C242.104 524.296 238.776 519.138 242.091 517.068C245.343 514.901 248.671 520.058 245.357 522.129Z" fill="#E6E6E6"/>
<path d="M411.251 100.234C407.999 102.401 404.671 97.2438 407.985 95.1731C411.237 93.0063 414.566 98.1638 411.251 100.234Z" fill="#E6E6E6"/>
<path d="M251.251 199.603C247.999 201.77 244.671 196.612 247.985 194.542C251.237 192.375 254.566 197.532 251.251 199.603Z" fill="#E6E6E6"/>
<path d="M481.38 171.116L479.311 170.662L479.764 168.592L478.385 168.29L477.931 170.359L475.862 169.906L475.56 171.286L477.629 171.74L477.176 173.809L478.555 174.111L479.009 172.041L481.078 172.495L481.38 171.116Z" fill="#E6E6E6"/>
<path d="M144.456 343.56L142.387 343.106L142.84 341.037L141.461 340.735L141.007 342.804L138.937 342.351L138.635 343.73L140.705 344.184L140.252 346.254L141.631 346.556L142.085 344.487L144.154 344.94L144.456 343.56Z" fill="#E6E6E6"/>
<path d="M568.783 431.525C567.061 432.323 565.093 432.405 563.31 431.753C561.528 431.102 560.077 429.77 559.275 428.05L550.759 409.721C549.962 408 549.881 406.032 550.533 404.251C551.186 402.47 552.518 401.021 554.238 400.222C555.959 399.422 557.926 399.339 559.708 399.989C561.49 400.639 562.941 401.97 563.742 403.689L572.258 422.018C573.056 423.74 573.138 425.708 572.486 427.49C571.835 429.272 570.503 430.724 568.783 431.525Z" fill="#3F3D56"/>
<path d="M423.94 498.894C422.218 499.691 420.25 499.773 418.468 499.122C416.686 498.47 415.235 497.138 414.433 495.418L405.917 477.089C405.12 475.368 405.039 473.401 405.691 471.62C406.343 469.839 407.676 468.389 409.396 467.59C411.117 466.791 413.084 466.707 414.866 467.357C416.648 468.007 418.099 469.338 418.9 471.057L427.416 489.386C428.213 491.108 428.295 493.076 427.644 494.859C426.992 496.641 425.66 498.092 423.94 498.894Z" fill="#3F3D56"/>
<path d="M555.664 391.479L498.564 418.009C494.929 412.353 483.97 383.37 486.431 374.772L487.639 365.152L521.732 348.425L529.287 354.745C539.931 351.147 555.578 377.523 555.664 391.479Z" fill="#E6E6E6"/>
<path d="M529.155 389.64L514.715 396.349C511.929 397.643 507.689 394.452 505.265 389.235C502.842 384.018 503.137 378.72 505.923 377.425L520.363 370.717C523.149 369.422 527.389 372.613 529.812 377.83C532.236 383.047 531.941 388.345 529.155 389.64Z" fill="#3F3D56"/>
<path d="M406.696 424.161L401.171 412.003L404.351 410.536L409.859 422.655L489.619 599.502L486.442 600.978" fill="#3F3D56"/>
<path d="M461.319 434.598L404.22 461.127C395.796 456.778 382.922 428.318 392.086 417.89L393.294 408.27L427.388 391.544L434.942 397.864C442.776 400.267 458.026 427.49 461.319 434.598Z" fill="#E6E6E6"/>
<path d="M433.635 430.229L419.195 436.938C416.409 438.232 412.433 435.608 410.333 431.089C408.233 426.569 408.792 421.838 411.578 420.544L426.018 413.835C428.804 412.54 432.78 415.164 434.88 419.684C436.98 424.203 436.421 428.934 433.635 430.229Z" fill="#3F3D56"/>
<path d="M144.246 307.238C192.149 307.238 230.982 268.404 230.982 220.501C230.982 172.598 192.149 133.764 144.246 133.764C96.3421 133.764 57.5087 172.598 57.5087 220.501C57.5087 268.404 96.3421 307.238 144.246 307.238Z" fill="#FF6584"/>
<path opacity="0.3" d="M499.878 310.841L552.588 156.897L494.709 308.998C494.423 309.359 494.227 309.783 494.137 310.235C494.048 310.687 494.067 311.154 494.194 311.597C494.321 312.04 494.552 312.446 494.867 312.782C495.182 313.118 495.573 313.374 496.007 313.529C496.441 313.684 496.906 313.733 497.362 313.672C497.819 313.611 498.255 313.442 498.633 313.18C499.012 312.917 499.322 312.568 499.539 312.161C499.755 311.754 499.872 311.302 499.878 310.841Z" fill="#F0F0F0"/>
<path d="M634.239 219.08C623.921 222.51 612.482 225.878 599.922 229.186C534.958 246.29 447.881 259.632 354.73 266.755C261.581 273.878 173.486 273.929 106.677 266.902C74.1319 263.478 48.3907 258.554 30.1686 252.265C10.8764 245.608 0.739323 237.586 0.038456 228.422C-1.32638 210.57 33.9017 194.857 63.6948 184.819L64.5017 187.213C23.5878 200.997 1.58919 215.564 2.55778 228.229C3.79088 244.361 41.8372 257.54 106.941 264.389C173.604 271.401 261.535 271.348 354.538 264.236C447.54 257.125 534.458 243.809 599.279 226.743C662.583 210.077 698.185 191.266 696.951 175.134C695.927 161.741 669.526 150.283 622.612 142.871L623.007 140.376C657.095 145.762 698.032 156.13 699.471 174.942C700.171 184.105 691.372 193.575 673.316 203.088C663.023 208.511 649.946 213.861 634.239 219.08Z" fill="#3F3D56"/>
<path d="M659.727 372.917C664.704 372.917 668.739 368.882 668.739 363.904C668.739 358.927 664.704 354.892 659.727 354.892C654.749 354.892 650.714 358.927 650.714 363.904C650.714 368.882 654.749 372.917 659.727 372.917Z" fill="#FF6584"/>
<path d="M716.99 617.127C721.967 617.127 726.002 613.092 726.002 608.115C726.002 603.137 721.967 599.102 716.99 599.102C712.012 599.102 707.977 603.137 707.977 608.115C707.977 613.092 712.012 617.127 716.99 617.127Z" fill="#F2F2F2"/>
<path d="M409.621 672.002C419.326 672.002 427.193 664.135 427.193 654.43C427.193 644.726 419.326 636.859 409.621 636.859C399.917 636.859 392.05 644.726 392.05 654.43C392.05 664.135 399.917 672.002 409.621 672.002Z" fill="#F2F2F2"/>
<path d="M275.727 439.443C280.704 439.443 284.739 435.408 284.739 430.43C284.739 425.453 280.704 421.418 275.727 421.418C270.749 421.418 266.714 425.453 266.714 430.43C266.714 435.408 270.749 439.443 275.727 439.443Z" fill="#3F3D56"/>
<path d="M578.717 451.173L617.602 461.239L641.451 508.083L601.131 509.665L578.717 451.173Z" fill="#E6E6E6"/>
<path d="M488.964 383.641L510.365 405.054L564.721 522.574L554.713 531.22L488.964 383.641Z" fill="#CCCCCC"/>
<path d="M442.43 403.052L444.109 433.28L495.414 552.163L508.531 550.474L442.43 403.052Z" fill="#CCCCCC"/>
<path d="M441.03 525.168L420.088 559.443L435.526 609.691L465.6 582.788L441.03 525.168Z" fill="#E6E6E6"/>
<path d="M626.025 546.229C615.152 546.229 603.234 545.818 590.272 544.996C523.229 540.739 436.388 525.937 345.745 503.319C255.103 480.7 171.488 452.966 110.305 425.227C80.5004 411.713 57.6258 398.922 42.317 387.208C26.109 374.806 19.0194 363.996 21.2443 355.079C25.5794 337.707 63.9651 333.907 95.4034 333.778L95.4141 336.304C52.241 336.481 26.771 343.366 23.6958 355.691C19.7784 371.388 51.7266 395.894 111.348 422.926C172.397 450.604 255.858 478.285 346.357 500.868C436.856 523.45 523.537 538.227 590.433 542.475C655.762 546.625 695.479 540.001 699.396 524.304C702.648 511.271 681.209 492.072 639.026 470.242L640.188 467.999C670.838 483.861 706.415 506.611 701.848 524.916C699.623 533.833 688.285 540.044 668.151 543.377C656.674 545.277 642.576 546.229 626.025 546.229Z" fill="#3F3D56"/>
<path d="M221.916 567.352C220.405 567.34 218.878 567.33 217.377 567.283L217.424 565.77C218.909 565.816 220.427 565.837 221.916 565.838C223.412 565.838 224.936 565.814 226.448 565.765L226.497 567.277C224.969 567.327 223.428 567.352 221.916 567.352ZM208.277 566.713C205.263 566.427 202.219 566.041 199.231 565.564L199.469 564.069C202.426 564.541 205.437 564.924 208.419 565.206L208.277 566.713ZM235.597 566.696L235.452 565.19C238.433 564.904 241.444 564.518 244.401 564.042L244.642 565.536C241.653 566.018 238.61 566.408 235.597 566.696ZM190.276 563.836C187.325 563.167 184.356 562.393 181.452 561.534L181.881 560.083C184.754 560.932 187.692 561.698 190.611 562.359L190.276 563.836ZM253.594 563.799L253.257 562.323C256.184 561.656 259.12 560.886 261.985 560.035L262.416 561.487C259.52 562.347 256.552 563.124 253.594 563.799ZM172.793 558.669C169.946 557.623 167.097 556.472 164.326 555.245L164.938 553.861C167.68 555.074 170.498 556.214 173.315 557.248L172.793 558.669ZM271.07 558.61L270.547 557.189C273.346 556.158 276.155 555.019 278.894 553.804L279.508 555.187C276.739 556.416 273.9 557.568 271.07 558.61ZM156.099 551.283C153.42 549.884 150.744 548.376 148.146 546.802L148.932 545.507C151.501 547.066 154.148 548.557 156.8 549.941L156.099 551.283ZM287.712 551.228L287.011 549.886C289.656 548.503 292.297 547.012 294.86 545.454L295.646 546.748C293.056 548.322 290.386 549.829 287.712 551.228ZM140.499 541.821C138.017 540.089 135.558 538.252 133.188 536.363L134.132 535.179C136.477 537.049 138.91 538.866 141.366 540.579L140.499 541.821ZM303.281 541.767L302.413 540.527C304.868 538.811 307.299 536.994 309.637 535.126L310.582 536.309C308.218 538.197 305.762 540.033 303.281 541.767ZM126.24 530.448C123.997 528.412 121.791 526.278 119.685 524.107L120.772 523.053C122.856 525.201 125.038 527.312 127.258 529.328L126.24 530.448ZM317.523 530.396L316.504 529.275C318.719 527.264 320.899 525.151 322.986 522.998L324.073 524.051C321.964 526.228 319.76 528.362 317.523 530.396ZM113.549 517.362C111.584 515.059 109.669 512.663 107.855 510.241L109.067 509.334C110.862 511.73 112.757 514.101 114.7 516.379L113.549 517.362ZM330.208 517.299L329.056 516.318C331 514.037 332.895 511.664 334.689 509.264L335.901 510.171C334.088 512.596 332.173 514.995 330.208 517.299ZM102.629 502.773C100.972 500.236 99.3787 497.617 97.8914 494.988L99.2094 494.243C100.68 496.844 102.258 499.436 103.896 501.945L102.629 502.773ZM341.13 502.69L339.861 501.864C341.501 499.35 343.078 496.754 344.549 494.147L345.868 494.89C344.381 497.526 342.786 500.151 341.13 502.69ZM93.6639 486.917C92.3466 484.193 91.1022 481.392 89.9653 478.594L91.3675 478.025C92.4926 480.792 93.7238 483.563 95.027 486.258L93.6639 486.917ZM350.097 486.799L348.734 486.141C350.037 483.441 351.268 480.664 352.395 477.883L353.798 478.45C352.659 481.262 351.415 484.071 350.097 486.799ZM86.8052 470.039C85.8475 467.163 84.9727 464.222 84.2046 461.296L85.669 460.912C86.4285 463.806 87.2942 466.716 88.2414 469.56L86.8052 470.039ZM356.952 469.879L355.515 469.402C356.457 466.562 357.319 463.651 358.077 460.751L359.542 461.134C358.776 464.065 357.904 467.007 356.952 469.879ZM82.1737 452.407C81.5952 449.436 81.1059 446.408 80.7189 443.405L82.2202 443.211C82.6031 446.182 83.0873 449.179 83.6595 452.117L82.1737 452.407ZM361.562 452.24L360.077 451.953C360.644 449.016 361.125 446.018 361.505 443.045L363.007 443.237C362.623 446.242 362.137 449.272 361.562 452.24ZM79.8437 434.329C79.6496 431.311 79.5495 428.244 79.5461 425.213L81.06 425.211C81.0634 428.211 81.1624 431.245 81.3546 434.231L79.8437 434.329ZM363.872 434.159L362.361 434.063C362.549 431.08 362.645 428.046 362.645 425.046L362.644 424.714H364.158L364.158 425.04C364.158 428.078 364.062 431.144 363.872 434.159ZM81.3335 416.193L79.8226 416.1C80.0103 413.076 80.2976 410.022 80.6764 407.021L82.1785 407.21C81.8033 410.18 81.5191 413.202 81.3335 416.193ZM362.34 415.696C362.143 412.704 361.848 409.683 361.463 406.717L362.964 406.522C363.353 409.519 363.652 412.572 363.851 415.597L362.34 415.696ZM83.5963 398.301L82.1097 398.015C82.6808 395.044 83.3572 392.051 84.1193 389.12L85.5844 389.501C84.8304 392.401 84.1614 395.361 83.5963 398.301ZM360.012 397.813C359.436 394.872 358.756 391.913 357.993 389.02L359.456 388.634C360.228 391.558 360.915 394.549 361.498 397.522L360.012 397.813ZM88.1368 380.847L86.6991 380.372C87.6493 377.496 88.7071 374.61 89.8437 371.796L91.2474 372.363C90.1231 375.147 89.0767 378.001 88.1368 380.847ZM355.411 380.375C354.461 377.533 353.406 374.687 352.276 371.915L353.677 371.343C354.82 374.146 355.887 377.023 356.847 379.894L355.411 380.375ZM94.8991 364.098L93.5345 363.442C94.8477 360.712 96.2678 357.988 97.7547 355.346L99.0742 356.089C97.6028 358.702 96.1983 361.397 94.8991 364.098ZM348.607 363.685C347.303 360.997 345.893 358.312 344.415 355.706L345.732 354.959C347.226 357.594 348.651 360.308 349.969 363.025L348.607 363.685ZM103.753 348.365L102.484 347.54C104.135 345.002 105.891 342.483 107.703 340.054L108.917 340.958C107.124 343.362 105.387 345.854 103.753 348.365ZM339.719 348.009C338.081 345.507 336.338 343.023 334.539 340.626L335.75 339.717C337.568 342.14 339.33 344.651 340.986 347.18L339.719 348.009ZM114.541 333.899L113.388 332.919C115.349 330.612 117.41 328.338 119.515 326.161L120.604 327.213C118.521 329.367 116.482 331.617 114.541 333.899ZM328.897 333.587C326.951 331.311 324.905 329.068 322.817 326.92L323.903 325.865C326.013 328.036 328.081 330.303 330.048 332.603L328.897 333.587ZM127.078 320.927L126.059 319.808C128.299 317.767 130.632 315.774 132.992 313.886L133.938 315.068C131.603 316.936 129.294 318.908 127.078 320.927ZM316.324 320.652C314.104 318.643 311.789 316.677 309.443 314.811L310.386 313.626C312.757 315.512 315.096 317.499 317.339 319.53L316.324 320.652ZM141.156 309.659L140.288 308.419C142.765 306.683 145.331 305.005 147.916 303.43L148.703 304.723C146.147 306.281 143.607 307.941 141.156 309.659ZM302.203 309.418C299.739 307.702 297.191 306.047 294.632 304.498L295.415 303.203C298.002 304.768 300.578 306.441 303.068 308.175L302.203 309.418ZM156.548 300.282L155.845 298.941C158.521 297.537 161.28 296.201 164.043 294.971L164.659 296.354C161.925 297.571 159.196 298.893 156.548 300.282ZM286.758 300.074C284.1 298.69 281.36 297.375 278.615 296.164L279.226 294.779C282.001 296.002 284.77 297.332 287.457 298.731L286.758 300.074ZM173.003 292.958L172.477 291.538C175.316 290.488 178.227 289.517 181.129 288.651L181.561 290.102C178.69 290.958 175.811 291.919 173.003 292.958ZM270.234 292.786C267.421 291.757 264.538 290.806 261.666 289.961L262.093 288.509C264.996 289.363 267.91 290.324 270.755 291.365L270.234 292.786ZM190.286 287.805L189.948 286.33C192.893 285.655 195.904 285.067 198.898 284.581L199.14 286.076C196.179 286.556 193.2 287.138 190.286 287.805ZM252.933 287.695C250.014 287.037 247.032 286.466 244.072 285.997L244.309 284.501C247.302 284.976 250.315 285.553 253.265 286.218L252.933 287.695ZM208.088 284.917L207.941 283.41C210.947 283.119 214.008 282.92 217.04 282.819L217.09 284.332C214.09 284.432 211.062 284.629 208.088 284.917ZM235.121 284.87C232.142 284.592 229.112 284.405 226.116 284.316L226.161 282.803C229.189 282.893 232.251 283.082 235.261 283.363L235.121 284.87Z" fill="#D0CDE1"/>
<path d="M216.554 322.1C236.202 322.1 252.13 306.172 252.13 286.524C252.13 266.875 236.202 250.947 216.554 250.947C196.905 250.947 180.977 266.875 180.977 286.524C180.977 306.172 196.905 322.1 216.554 322.1Z" fill="white"/>
<path d="M354.318 418.99C373.967 418.99 389.895 403.062 389.895 383.413C389.895 363.765 373.967 347.837 354.318 347.837C334.67 347.837 318.742 363.765 318.742 383.413C318.742 403.062 334.67 418.99 354.318 418.99Z" fill="white"/>
<path d="M311.172 567.352C330.82 567.352 346.749 551.423 346.749 531.775C346.749 512.127 330.82 496.198 311.172 496.198C291.524 496.198 275.595 512.127 275.595 531.775C275.595 551.423 291.524 567.352 311.172 567.352Z" fill="white"/>
<path d="M140.102 573.408C159.75 573.408 175.678 557.479 175.678 537.831C175.678 518.183 159.75 502.254 140.102 502.254C120.453 502.254 104.525 518.183 104.525 537.831C104.525 557.479 120.453 573.408 140.102 573.408Z" fill="white"/>
<path d="M88.6292 418.99C108.278 418.99 124.206 403.062 124.206 383.413C124.206 363.765 108.278 347.837 88.6292 347.837C68.9808 347.837 53.0526 363.765 53.0526 383.413C53.0526 403.062 68.9808 418.99 88.6292 418.99Z" fill="white"/>
<path d="M231.799 283.688H219.39C218.261 283.688 217.179 283.239 216.381 282.441C215.584 281.644 215.135 280.561 215.135 279.433V267.024C215.135 266.977 215.126 266.931 215.108 266.888C215.09 266.845 215.064 266.806 215.031 266.773C214.999 266.74 214.959 266.714 214.916 266.696C214.873 266.678 214.827 266.669 214.781 266.669H206.626C205.122 266.669 203.679 267.267 202.615 268.331C201.551 269.395 200.953 270.837 200.953 272.342V300.706C200.953 302.211 201.551 303.653 202.615 304.717C203.679 305.781 205.122 306.379 206.626 306.379H226.481C227.985 306.379 229.428 305.781 230.492 304.717C231.556 303.653 232.154 302.211 232.154 300.706V284.042C232.154 283.996 232.145 283.949 232.127 283.906C232.109 283.863 232.083 283.824 232.05 283.791C232.017 283.759 231.978 283.732 231.935 283.715C231.892 283.697 231.846 283.688 231.799 283.688ZM223.645 297.87H209.462C209.086 297.87 208.726 297.72 208.46 297.454C208.194 297.188 208.044 296.828 208.044 296.451C208.044 296.075 208.194 295.715 208.46 295.449C208.726 295.183 209.086 295.033 209.462 295.033H223.645C224.021 295.033 224.381 295.183 224.647 295.449C224.913 295.715 225.063 296.075 225.063 296.451C225.063 296.828 224.913 297.188 224.647 297.454C224.381 297.72 224.021 297.87 223.645 297.87ZM223.645 290.779H209.462C209.086 290.779 208.726 290.629 208.46 290.363C208.194 290.097 208.044 289.737 208.044 289.36C208.044 288.984 208.194 288.624 208.46 288.358C208.726 288.092 209.086 287.942 209.462 287.942H223.645C224.021 287.942 224.381 288.092 224.647 288.358C224.913 288.624 225.063 288.984 225.063 289.36C225.063 289.737 224.913 290.097 224.647 290.363C224.381 290.629 224.021 290.779 223.645 290.779Z" fill="#1A73E8"/>
<path d="M231.021 280.549L218.274 267.802C218.249 267.777 218.218 267.76 218.183 267.754C218.149 267.747 218.114 267.75 218.081 267.764C218.049 267.777 218.021 267.8 218.002 267.829C217.982 267.858 217.972 267.892 217.972 267.927V279.433C217.972 279.809 218.121 280.17 218.387 280.436C218.653 280.702 219.014 280.851 219.39 280.851H230.896C230.931 280.851 230.965 280.84 230.994 280.821C231.023 280.801 231.046 280.774 231.059 280.741C231.072 280.709 231.076 280.674 231.069 280.639C231.062 280.605 231.046 280.574 231.021 280.549Z" fill="#1A73E8"/>
<path d="M316.318 524.767C315.882 524.767 315.459 524.919 315.122 525.196C314.785 525.473 314.554 525.858 314.47 526.286C314.385 526.713 314.451 527.158 314.657 527.542C314.862 527.927 315.195 528.228 315.598 528.395C316.001 528.561 316.45 528.583 316.867 528.456C317.284 528.33 317.645 528.062 317.887 527.699C318.129 527.337 318.238 526.901 318.195 526.467C318.152 526.033 317.96 525.627 317.652 525.319C317.476 525.144 317.268 525.005 317.04 524.91C316.811 524.816 316.566 524.767 316.318 524.767Z" fill="#1A73E8"/>
<path d="M326.814 517.227V517.221C326.755 516.959 326.623 516.719 326.434 516.528C326.245 516.337 326.007 516.203 325.746 516.14C323.64 515.627 320.329 516.174 316.659 517.643C313.13 519.015 309.901 521.06 307.152 523.663C306.401 524.41 305.704 525.209 305.065 526.053C303.653 525.956 302.237 526.183 300.927 526.718C296.848 528.513 295.684 533.107 295.373 534.993C295.329 535.261 295.346 535.535 295.425 535.796C295.503 536.056 295.641 536.294 295.827 536.492C296.013 536.691 296.242 536.843 296.496 536.938C296.751 537.034 297.024 537.069 297.294 537.041H297.303L301.847 536.545C301.853 536.603 301.859 536.656 301.864 536.705C301.922 537.259 302.169 537.776 302.563 538.169L304.781 540.388C305.173 540.782 305.69 541.029 306.244 541.088L306.396 541.104L305.901 545.642V545.651C305.877 545.882 305.899 546.115 305.965 546.337C306.032 546.559 306.141 546.766 306.287 546.946C306.433 547.126 306.614 547.276 306.818 547.386C307.022 547.496 307.245 547.566 307.476 547.589C307.53 547.595 307.585 547.598 307.64 547.599C307.738 547.599 307.836 547.591 307.933 547.575C309.829 547.269 314.421 546.119 316.211 542.018C316.742 540.712 316.97 539.303 316.879 537.897C317.727 537.259 318.528 536.562 319.277 535.809C321.879 533.086 323.926 529.883 325.303 526.377C326.765 522.749 327.315 519.413 326.814 517.227ZM319.252 529.581C318.671 530.162 317.932 530.558 317.126 530.718C316.321 530.879 315.486 530.797 314.728 530.483C313.969 530.169 313.32 529.638 312.864 528.955C312.407 528.273 312.163 527.47 312.163 526.649C312.162 525.828 312.406 525.025 312.861 524.342C313.317 523.659 313.965 523.127 314.724 522.812C315.482 522.498 316.317 522.415 317.122 522.575C317.928 522.734 318.668 523.129 319.248 523.71L319.252 523.713C320.03 524.479 320.472 525.523 320.48 526.616C320.488 527.708 320.062 528.759 319.296 529.537L319.252 529.581Z" fill="#1A73E8"/>
<path d="M304.526 540.99C304.253 540.956 303.977 541.023 303.749 541.178C303.298 541.487 302.844 541.792 302.387 542.089C302.188 542.217 301.952 542.275 301.717 542.252C301.482 542.23 301.261 542.129 301.089 541.966C300.918 541.803 300.807 541.588 300.773 541.354C300.739 541.12 300.785 540.881 300.903 540.677L301.761 539.193C301.884 539.014 301.953 538.803 301.958 538.585C301.964 538.368 301.907 538.153 301.794 537.968C301.681 537.782 301.517 537.633 301.321 537.538C301.125 537.443 300.906 537.407 300.691 537.433C299.738 537.554 298.853 537.988 298.174 538.667C297.915 538.926 297.129 539.713 296.706 542.712C296.585 543.573 296.509 544.44 296.478 545.309C296.474 545.458 296.5 545.605 296.553 545.744C296.606 545.882 296.686 546.009 296.789 546.117C296.891 546.224 297.013 546.311 297.149 546.371C297.285 546.431 297.431 546.464 297.579 546.468C297.589 546.468 297.599 546.468 297.609 546.468H297.637C298.507 546.438 299.374 546.362 300.236 546.242C303.236 545.819 304.023 545.032 304.282 544.773C304.964 544.094 305.397 543.204 305.51 542.248C305.547 541.951 305.463 541.651 305.279 541.415C305.094 541.179 304.824 541.026 304.526 540.99Z" fill="#1A73E8"/>
<path d="M127.858 557.163H125.28C124.768 557.163 124.276 556.96 123.913 556.597C123.551 556.234 123.347 555.743 123.347 555.23V543.631C123.347 543.118 123.551 542.626 123.913 542.263C124.276 541.901 124.768 541.697 125.28 541.697H127.858C128.371 541.697 128.862 541.901 129.225 542.263C129.588 542.626 129.791 543.118 129.791 543.631V555.23C129.791 555.743 129.588 556.234 129.225 556.597C128.862 556.96 128.371 557.163 127.858 557.163Z" fill="#1A73E8"/>
<path d="M145.901 557.163H143.324C142.811 557.163 142.319 556.96 141.957 556.597C141.594 556.234 141.391 555.743 141.391 555.23V535.898C141.391 535.385 141.594 534.893 141.957 534.531C142.319 534.168 142.811 533.964 143.324 533.964H145.901C146.414 533.964 146.906 534.168 147.268 534.531C147.631 534.893 147.835 535.385 147.835 535.898V555.23C147.835 555.743 147.631 556.234 147.268 556.597C146.906 556.96 146.414 557.163 145.901 557.163Z" fill="#1A73E8"/>
<path d="M154.923 557.163H152.346C151.833 557.163 151.341 556.96 150.979 556.597C150.616 556.234 150.412 555.743 150.412 555.23V526.876C150.412 526.363 150.616 525.871 150.979 525.509C151.341 525.146 151.833 524.943 152.346 524.943H154.923C155.436 524.943 155.928 525.146 156.29 525.509C156.653 525.871 156.856 526.363 156.856 526.876V555.23C156.856 555.743 156.653 556.234 156.29 556.597C155.928 556.96 155.436 557.163 154.923 557.163Z" fill="#1A73E8"/>
<path d="M136.88 557.163H134.302C133.789 557.163 133.298 556.96 132.935 556.597C132.573 556.234 132.369 555.743 132.369 555.23V520.432C132.369 519.919 132.573 519.427 132.935 519.065C133.298 518.702 133.789 518.499 134.302 518.499H136.88C137.393 518.499 137.884 518.702 138.247 519.065C138.609 519.427 138.813 519.919 138.813 520.432V555.23C138.813 555.484 138.763 555.735 138.666 555.97C138.569 556.204 138.426 556.417 138.247 556.597C138.067 556.777 137.854 556.919 137.62 557.016C137.385 557.113 137.134 557.163 136.88 557.163Z" fill="#1A73E8"/>
<path d="M356.023 382.482L354.181 380.639C353.759 380.217 353.187 379.98 352.591 379.978C351.994 379.976 351.421 380.211 350.997 380.631L338.193 392.447C337.723 392.863 337.436 393.447 337.393 394.073C337.379 394.384 337.43 394.695 337.542 394.985C337.654 395.276 337.824 395.54 338.043 395.762L340.793 398.543L340.798 398.548C341.223 398.972 341.798 399.21 342.399 399.212H342.482C342.793 399.195 343.097 399.116 343.377 398.981C343.658 398.846 343.909 398.657 344.116 398.425L356.015 385.679C356.44 385.258 356.68 384.685 356.683 384.086C356.685 383.488 356.45 382.913 356.029 382.488L356.023 382.482Z" fill="#1A73E8"/>
<path d="M370.823 378.758L370.801 378.737L368.384 376.344C368.242 376.203 368.074 376.091 367.889 376.015C367.704 375.94 367.506 375.901 367.306 375.903C366.982 375.903 366.667 376.005 366.404 376.195C366.404 376.164 366.408 376.135 366.41 376.108C366.508 375.491 366.378 374.858 366.044 374.33C365.511 373.612 364.927 372.934 364.295 372.303L364.289 372.297C362.522 370.602 360.445 369.262 358.172 368.351C356.984 367.864 355.713 367.613 354.429 367.614C352.766 367.599 351.151 368.165 349.862 369.214C349.495 369.565 349.16 369.947 348.861 370.358C348.719 370.555 348.644 370.792 348.647 371.035C348.65 371.278 348.732 371.514 348.88 371.706C349.027 371.899 349.233 372.039 349.467 372.106C349.701 372.172 349.95 372.161 350.177 372.075C350.375 372.001 350.577 371.939 350.782 371.889C351.209 371.799 351.648 371.772 352.083 371.808C352.986 371.902 353.851 372.22 354.601 372.731C355.021 373.085 355.355 373.53 355.578 374.032C355.801 374.534 355.907 375.08 355.888 375.63C355.575 376.522 355.097 377.347 354.478 378.061C354.313 378.279 354.232 378.549 354.251 378.821C354.27 379.094 354.387 379.35 354.58 379.543L357.007 381.97C357.211 382.174 357.486 382.293 357.774 382.301C358.063 382.309 358.344 382.206 358.559 382.013C359.245 381.4 360.29 380.476 360.656 380.25C360.968 380.041 361.322 379.902 361.693 379.841C361.969 379.814 362.247 379.873 362.489 380.009C362.49 380.021 362.489 380.033 362.485 380.045C362.481 380.056 362.475 380.067 362.467 380.076L362.339 380.198L362.317 380.218C362.032 380.502 361.872 380.888 361.871 381.29C361.87 381.693 362.029 382.079 362.313 382.364L362.321 382.372L364.737 384.763C364.879 384.904 365.047 385.016 365.232 385.092C365.417 385.167 365.615 385.206 365.815 385.204C366.216 385.205 366.602 385.048 366.889 384.767L370.803 380.9C370.817 380.887 370.83 380.873 370.843 380.859C371.105 380.571 371.249 380.194 371.246 379.805C371.242 379.415 371.091 379.041 370.823 378.758Z" fill="#1A73E8"/>
<path d="M94.2777 381.295C93.9984 381.295 93.7254 381.212 93.4932 381.057C93.261 380.902 93.08 380.681 92.9731 380.423C92.8662 380.165 92.8383 379.881 92.8927 379.607C92.9472 379.333 93.0817 379.082 93.2792 378.884L96.5171 375.646L93.2792 372.408C93.0144 372.144 92.8656 371.784 92.8656 371.41C92.8656 371.035 93.0144 370.676 93.2792 370.411C93.544 370.147 93.9032 369.998 94.2777 369.998C94.6522 369.998 95.0114 370.147 95.2762 370.411L99.5127 374.648C99.6439 374.779 99.7479 374.935 99.8189 375.106C99.8898 375.277 99.9263 375.461 99.9263 375.646C99.9263 375.832 99.8898 376.015 99.8189 376.187C99.7479 376.358 99.6439 376.514 99.5127 376.645L95.2762 380.881C95.1453 381.013 94.9896 381.117 94.8183 381.188C94.6469 381.259 94.4632 381.295 94.2777 381.295Z" fill="#1A73E8"/>
<path d="M71.6833 385.531C71.4978 385.531 71.3142 385.495 71.1429 385.424C70.9715 385.353 70.8158 385.249 70.6847 385.118C70.5536 384.987 70.4496 384.831 70.3786 384.66C70.3076 384.488 70.2711 384.305 70.2711 384.119V382.707C70.2822 380.464 71.1779 378.316 72.7635 376.73C74.3492 375.143 76.4968 374.246 78.7399 374.234H97.1021C97.4766 374.234 97.8358 374.383 98.1007 374.648C98.3655 374.913 98.5143 375.272 98.5143 375.646C98.5143 376.021 98.3655 376.38 98.1007 376.645C97.8358 376.91 97.4766 377.058 97.1021 377.058H78.7441C77.248 377.067 75.8157 377.666 74.7582 378.724C73.7007 379.782 73.1032 381.215 73.0954 382.711V384.119C73.0954 384.305 73.0589 384.488 72.9879 384.66C72.917 384.831 72.813 384.987 72.6818 385.118C72.5507 385.249 72.395 385.353 72.2237 385.424C72.0524 385.495 71.8687 385.531 71.6833 385.531Z" fill="#1A73E8"/>
<path d="M82.9806 396.829C82.7951 396.829 82.6114 396.792 82.44 396.721C82.2687 396.65 82.113 396.546 81.982 396.415L77.7456 392.178C77.6144 392.047 77.5104 391.892 77.4394 391.72C77.3684 391.549 77.3319 391.365 77.3319 391.18C77.3319 390.994 77.3684 390.811 77.4394 390.64C77.5104 390.468 77.6144 390.312 77.7456 390.181L81.982 385.945C82.2469 385.68 82.606 385.532 82.9803 385.532C83.3546 385.532 83.7135 385.681 83.9782 385.946C84.2428 386.211 84.3916 386.569 84.3918 386.944C84.3919 387.318 84.2435 387.677 83.9791 387.942L80.7412 391.18L83.9791 394.418C84.1766 394.615 84.3111 394.867 84.3655 395.141C84.42 395.415 84.3921 395.699 84.2852 395.957C84.1783 396.215 83.9973 396.435 83.7651 396.591C83.5329 396.746 83.2599 396.829 82.9806 396.829Z" fill="#1A73E8"/>
<path d="M80.1563 392.592C79.7818 392.592 79.4226 392.444 79.1578 392.179C78.8929 391.914 78.7441 391.555 78.7441 391.18C78.7441 390.806 78.8929 390.447 79.1578 390.182C79.4226 389.917 79.7818 389.768 80.1563 389.768H98.5143C100.01 389.759 101.443 389.161 102.5 388.102C103.558 387.044 104.155 385.611 104.163 384.115V382.707C104.163 382.333 104.312 381.974 104.577 381.709C104.841 381.444 105.201 381.295 105.575 381.295C105.95 381.295 106.309 381.444 106.574 381.709C106.838 381.974 106.987 382.333 106.987 382.707V384.119C106.976 386.363 106.08 388.511 104.495 390.097C102.909 391.684 100.761 392.58 98.5185 392.592L80.1563 392.592Z" fill="#1A73E8"/>
</svg>
