<svg width="800" height="680" viewBox="0 0 800 680" fill="none" xmlns="http://www.w3.org/2000/svg">
<path d="M799.188 335.75C794.802 386.401 772.722 435.346 741.224 475.827C739.907 477.52 738.574 479.197 737.226 480.859C734.193 484.598 731.081 488.266 727.891 491.864C723.987 496.297 719.97 500.627 715.84 504.856C712.477 508.336 709.036 511.742 705.517 515.073C702.801 517.671 700.053 520.219 697.275 522.715C663.849 552.92 625.449 577.846 585.885 599.644C508.675 642.17 424.045 674.385 336.018 679.077C248.002 683.756 156.119 658.548 91.5706 598.515C4.57785 517.613 -19.7011 382.674 15.618 269.25C39.1092 193.791 87.0558 125.528 152.309 80.9443C216.998 36.7483 298.606 16.8549 375.84 29.8586C437.496 -7.61221 518.21 -8.32934 585.239 19.4063C621.005 34.2088 653.102 56.2186 681.261 82.8138C694.157 95.0188 706.223 108.071 717.38 121.883C718.52 123.283 719.649 124.693 720.766 126.116C725.445 132.03 729.972 138.066 734.346 144.222C740.624 153.052 746.585 162.078 752.229 171.3C753.781 173.839 755.321 176.391 756.826 178.965C757.837 180.694 758.86 182.434 759.859 184.186C759.882 184.222 759.898 184.262 759.906 184.303C775.555 211.827 788.347 241.197 795.014 271.896C796.189 277.328 797.177 282.783 797.941 288.285V288.297C798.611 292.965 799.117 297.656 799.458 302.371C800.262 313.486 800.171 324.649 799.188 335.75Z" fill="#3F3D56"/>
<path d="M459.468 451.785H165.747C162.512 451.781 159.412 450.495 157.125 448.208C154.838 445.921 153.551 442.82 153.547 439.585V228.858C153.551 225.624 154.838 222.523 157.125 220.236C159.412 217.949 162.512 216.663 165.747 216.659H459.468C462.702 216.663 465.803 217.949 468.09 220.236C470.377 222.523 471.663 225.624 471.667 228.858V439.585C471.663 442.82 470.377 445.921 468.09 448.208C465.803 450.495 462.702 451.781 459.468 451.785ZM165.747 223.08C164.215 223.081 162.746 223.691 161.663 224.774C160.579 225.857 159.97 227.326 159.968 228.858V439.585C159.97 441.118 160.579 442.586 161.663 443.67C162.746 444.753 164.215 445.362 165.747 445.364H459.468C461 445.362 462.469 444.753 463.552 443.67C464.635 442.586 465.245 441.118 465.246 439.585V228.858C465.245 227.326 464.635 225.857 463.552 224.774C462.469 223.691 461 223.081 459.468 223.08H165.747Z" fill="#E6E6E6"/>
<path d="M306.365 523.895C319.416 523.895 329.997 513.315 329.997 500.263C329.997 487.212 319.416 476.631 306.365 476.631C293.313 476.631 282.733 487.212 282.733 500.263C282.733 513.315 293.313 523.895 306.365 523.895Z" fill="#E6E6E6"/>
<path d="M306.365 518.381C316.371 518.381 324.483 510.27 324.483 500.263C324.483 490.257 316.371 482.145 306.365 482.145C296.358 482.145 288.247 490.257 288.247 500.263C288.247 510.27 296.358 518.381 306.365 518.381Z" fill="white"/>
<path d="M315.441 510.159C315.333 510.159 315.226 510.138 315.125 510.096C315.025 510.055 314.934 509.994 314.858 509.917L296.703 491.761C296.555 491.605 296.473 491.398 296.476 491.183C296.479 490.968 296.566 490.762 296.718 490.61C296.87 490.458 297.075 490.371 297.291 490.368C297.506 490.365 297.713 490.447 297.869 490.595L316.025 508.75C316.14 508.865 316.219 509.012 316.25 509.173C316.282 509.333 316.266 509.498 316.203 509.649C316.141 509.8 316.035 509.929 315.9 510.019C315.764 510.11 315.604 510.159 315.441 510.159Z" fill="#1A73E8"/>
<path d="M316.611 502.009C316.782 501.741 316.872 501.43 316.871 501.112C316.871 500.794 316.778 500.484 316.606 500.216C315.283 498.148 313.538 496.381 311.486 495.031C309.406 493.648 306.972 492.895 304.474 492.862C303.215 492.863 301.964 493.069 300.77 493.47C300.736 493.481 300.706 493.5 300.683 493.526C300.659 493.552 300.642 493.584 300.634 493.618C300.626 493.652 300.627 493.688 300.637 493.722C300.646 493.756 300.664 493.787 300.689 493.812L303.126 496.248C303.152 496.273 303.183 496.292 303.218 496.301C303.253 496.311 303.289 496.311 303.324 496.302C304.6 495.991 305.947 496.2 307.069 496.883C308.19 497.565 308.995 498.665 309.306 499.941L309.312 499.965C309.733 501.938 310.694 503.754 312.089 505.212L312.865 505.989C312.901 506.026 312.95 506.047 313.002 506.049C313.054 506.051 313.104 506.034 313.144 506.001C314.493 504.851 315.662 503.506 316.611 502.009Z" fill="#1A73E8"/>
<path d="M308.158 504.088C307.508 504.088 306.864 503.96 306.264 503.711C305.663 503.462 305.117 503.098 304.657 502.638C304.197 502.178 303.833 501.632 303.584 501.032C303.335 500.431 303.207 499.787 303.207 499.137C303.207 499.132 303.207 499.128 303.207 499.124C303.217 498.691 303.142 498.261 302.986 497.857C302.829 497.454 302.594 497.086 302.294 496.774L299.845 494.324C299.808 494.287 299.758 494.266 299.706 494.264C299.654 494.262 299.604 494.279 299.564 494.313C298.24 495.461 297.068 496.773 296.075 498.217C295.889 498.485 295.786 498.802 295.78 499.129C295.774 499.455 295.865 499.776 296.042 500.05C297.344 502.121 299.072 503.891 301.111 505.242C303.194 506.63 305.639 507.377 308.142 507.389C309.414 507.385 310.678 507.184 311.888 506.793C311.922 506.782 311.953 506.763 311.977 506.737C312.001 506.711 312.018 506.68 312.026 506.645C312.035 506.611 312.034 506.575 312.024 506.541C312.015 506.507 311.997 506.476 311.971 506.451L309.523 504.003C309.498 503.978 309.466 503.959 309.432 503.95C309.397 503.94 309.361 503.94 309.326 503.949C308.944 504.041 308.552 504.088 308.158 504.088Z" fill="#1A73E8"/>
<path d="M216.702 523.895C229.753 523.895 240.334 513.315 240.334 500.263C240.334 487.212 229.753 476.631 216.702 476.631C203.65 476.631 193.07 487.212 193.07 500.263C193.07 513.315 203.65 523.895 216.702 523.895Z" fill="#E6E6E6"/>
<path d="M216.702 518.381C226.708 518.381 234.82 510.27 234.82 500.263C234.82 490.257 226.708 482.145 216.702 482.145C206.695 482.145 198.584 490.257 198.584 500.263C198.584 510.27 206.695 518.381 216.702 518.381Z" fill="white"/>
<path d="M223.662 511.816C222.655 511.816 221.241 511.452 219.123 510.269C216.491 508.862 214.087 507.064 211.995 504.937C209.828 502.874 208.019 500.465 206.641 497.81C204.741 494.355 205.065 492.543 205.427 491.769C205.845 490.923 206.502 490.217 207.317 489.741C207.785 489.435 208.279 489.172 208.795 488.957C208.846 488.935 208.894 488.914 208.937 488.895C209.108 488.798 209.297 488.739 209.492 488.721C209.687 488.703 209.884 488.727 210.069 488.791C210.481 488.989 210.847 489.27 211.145 489.617C212.218 490.821 213.123 492.164 213.835 493.61C214.128 494.111 214.308 494.669 214.363 495.246C214.32 495.817 214.089 496.358 213.705 496.783C213.638 496.876 213.571 496.964 213.506 497.049C213.113 497.565 213.027 497.714 213.084 497.98C213.199 498.515 214.942 498.98 216.351 500.387C217.761 501.793 218.422 503.724 218.959 503.839C219.237 503.898 219.389 503.808 219.921 503.402C219.997 503.344 220.076 503.283 220.158 503.223C220.584 502.821 221.134 502.575 221.718 502.525H221.722C222.307 502.585 222.87 502.782 223.365 503.101C224.795 503.826 226.131 504.723 227.343 505.772C227.69 506.069 227.972 506.434 228.171 506.845C228.235 507.031 228.259 507.228 228.241 507.424C228.223 507.619 228.164 507.809 228.068 507.98C228.049 508.023 228.028 508.07 228.006 508.122C227.789 508.636 227.525 509.13 227.217 509.596C226.739 510.41 226.033 511.066 225.186 511.482C224.71 511.708 224.189 511.822 223.662 511.816Z" fill="#1A73E8"/>
<path d="M396.723 523.895C409.774 523.895 420.355 513.315 420.355 500.263C420.355 487.212 409.774 476.631 396.723 476.631C383.671 476.631 373.091 487.212 373.091 500.263C373.091 513.315 383.671 523.895 396.723 523.895Z" fill="#E6E6E6"/>
<path d="M396.723 518.381C406.729 518.381 414.841 510.27 414.841 500.263C414.841 490.257 406.729 482.145 396.723 482.145C386.717 482.145 378.605 490.257 378.605 500.263C378.605 510.27 386.717 518.381 396.723 518.381Z" fill="white"/>
<path d="M403.325 496.88C403.106 496.88 402.896 496.967 402.741 497.121C402.586 497.276 402.5 497.486 402.5 497.705V499.355C402.5 502.546 399.913 503.482 396.723 503.482C393.532 503.482 390.946 502.546 390.946 499.355V497.705C390.946 497.486 390.859 497.276 390.704 497.121C390.55 496.967 390.34 496.88 390.121 496.88C389.902 496.88 389.692 496.967 389.537 497.121C389.383 497.276 389.296 497.486 389.296 497.705V499.355C389.298 501.181 389.972 502.942 391.19 504.303C392.407 505.664 394.083 506.529 395.898 506.733V510.084C395.898 510.302 395.985 510.512 396.139 510.667C396.294 510.822 396.504 510.909 396.723 510.909C396.942 510.909 397.152 510.822 397.306 510.667C397.461 510.512 397.548 510.302 397.548 510.084V506.733C399.362 506.529 401.038 505.664 402.256 504.303C403.473 502.942 404.148 501.181 404.15 499.355V497.705C404.15 497.486 404.063 497.276 403.908 497.121C403.754 496.967 403.544 496.88 403.325 496.88Z" fill="#1A73E8"/>
<path d="M396.723 501.147C395.711 501.166 394.709 500.937 393.806 500.48C393.482 500.351 393.198 500.136 392.985 499.859C392.772 499.582 392.638 499.252 392.597 498.905V495.834C392.588 494.616 394.421 493.625 396.691 493.62C396.702 493.62 396.712 493.62 396.723 493.62C398.977 493.607 400.825 494.577 400.849 495.787C400.849 495.802 400.849 495.818 400.849 495.834V498.905C400.86 500.135 399.015 501.137 396.723 501.147Z" fill="#1A73E8"/>
<path d="M459.468 448.896H165.747C163.278 448.893 160.912 447.911 159.167 446.166C157.421 444.42 156.44 442.054 156.437 439.586V228.858C156.44 226.39 157.421 224.024 159.167 222.278C160.912 220.533 163.278 219.551 165.747 219.548H459.468C461.936 219.551 464.302 220.533 466.048 222.278C467.793 224.024 468.775 226.39 468.778 228.858V439.586C468.775 442.054 467.793 444.42 466.048 446.166C464.302 447.911 461.936 448.893 459.468 448.896Z" fill="white"/>
<path d="M311.169 350.143C328.34 350.143 342.259 336.223 342.259 319.053C342.259 301.883 328.34 287.963 311.169 287.963C293.999 287.963 280.08 301.883 280.08 319.053C280.08 336.223 293.999 350.143 311.169 350.143Z" fill="#FFB8B8"/>
<path d="M276.488 289.145C276.723 285.574 279.084 281.921 286.585 280.012C286.585 280.012 299.459 263.55 316.953 272.183C316.953 272.183 325.434 270.724 331.723 279.523C331.723 279.523 337.958 275.846 340.588 282.364C340.588 282.364 347.901 295.659 345.209 309.22C342.516 322.781 341.138 324.473 341.138 324.473C341.138 324.473 344.57 296.423 324.805 298.368C305.04 300.313 289.127 293.362 284.651 308.58C280.935 321.217 281.403 327.78 281.403 327.78C281.403 327.78 268.974 315.174 273.2 305.247C275.361 300.17 276.125 294.65 276.488 289.145Z" fill="#2F2E41"/>
<path d="M226.625 448.574H398.59C397.441 435.457 396.689 425.697 396.689 422.397C396.689 407.841 384.779 391.957 384.779 391.957L380.516 389.6L344.913 378.492L335.699 366.524C334.734 365.267 333.491 364.251 332.067 363.556C330.644 362.861 329.078 362.505 327.494 362.518L298.389 362.736C295.827 362.756 293.366 363.731 291.486 365.471L273.463 382.191L247.029 394.814L246.984 394.769L246.708 394.974L242.785 397.799L240.262 399.623C240.262 399.623 233.642 407.565 228.352 431.386C227.556 434.969 226.997 440.966 226.625 448.574Z" fill="#1A73E8"/>
<path d="M649.276 182.63H150.724C150.53 182.625 150.346 182.546 150.211 182.407C150.076 182.269 150 182.083 150 181.89C150 181.696 150.076 181.511 150.211 181.372C150.346 181.234 150.53 181.154 150.724 181.15H649.276C649.47 181.154 649.654 181.234 649.789 181.372C649.924 181.511 650 181.696 650 181.89C650 182.083 649.924 182.269 649.789 182.407C649.654 182.546 649.47 182.625 649.276 182.63Z" fill="#CACACA"/>
<path d="M167.01 172.274C171.406 172.274 174.969 168.631 174.969 164.137C174.969 159.643 171.406 156 167.01 156C162.614 156 159.051 159.643 159.051 164.137C159.051 168.631 162.614 172.274 167.01 172.274Z" fill="#1A73E8"/>
<path d="M194.506 172.274C198.902 172.274 202.466 168.631 202.466 164.137C202.466 159.643 198.902 156 194.506 156C190.11 156 186.547 159.643 186.547 164.137C186.547 168.631 190.11 172.274 194.506 172.274Z" fill="#1A73E8"/>
<path d="M222.003 172.274C226.399 172.274 229.962 168.631 229.962 164.137C229.962 159.643 226.399 156 222.003 156C217.607 156 214.043 159.643 214.043 164.137C214.043 168.631 217.607 172.274 222.003 172.274Z" fill="#1A73E8"/>
<path d="M632.802 160.977H613.265C612.878 160.969 612.51 160.809 612.24 160.533C611.969 160.256 611.818 159.885 611.818 159.498C611.818 159.111 611.969 158.739 612.24 158.463C612.51 158.186 612.878 158.027 613.265 158.018H632.802C633.188 158.027 633.556 158.186 633.827 158.463C634.097 158.739 634.249 159.111 634.249 159.498C634.249 159.885 634.097 160.256 633.827 160.533C633.556 160.809 633.188 160.969 632.802 160.977Z" fill="#1A73E8"/>
<path d="M632.802 166.525H613.265C612.878 166.517 612.51 166.357 612.24 166.08C611.969 165.804 611.818 165.432 611.818 165.046C611.818 164.659 611.969 164.287 612.24 164.011C612.51 163.734 612.878 163.575 613.265 163.566H632.802C633.188 163.575 633.556 163.734 633.827 164.011C634.097 164.287 634.249 164.659 634.249 165.046C634.249 165.432 634.097 165.804 633.827 166.08C633.556 166.357 633.188 166.517 632.802 166.525Z" fill="#1A73E8"/>
<path d="M632.802 172.073H613.265C612.878 172.064 612.51 171.905 612.24 171.628C611.969 171.351 611.818 170.98 611.818 170.593C611.818 170.206 611.969 169.835 612.24 169.558C612.51 169.282 612.878 169.122 613.265 169.114H632.802C633.188 169.122 633.556 169.282 633.827 169.558C634.097 169.835 634.249 170.206 634.249 170.593C634.249 170.98 634.097 171.351 633.827 171.628C633.556 171.905 633.188 172.064 632.802 172.073Z" fill="#1A73E8"/>
<path d="M619.181 462.227H521.164C517.93 462.223 514.829 460.937 512.542 458.65C510.255 456.363 508.969 453.262 508.965 450.027V382.895C508.969 379.661 510.255 376.56 512.542 374.273C514.829 371.986 517.93 370.699 521.164 370.696H619.181C622.415 370.699 625.516 371.986 627.803 374.273C630.09 376.56 631.376 379.661 631.38 382.895V450.027C631.376 453.262 630.09 456.363 627.803 458.65C625.516 460.937 622.415 462.223 619.181 462.227ZM521.164 377.116C519.632 377.118 518.164 377.728 517.08 378.811C515.997 379.894 515.388 381.363 515.386 382.895V450.027C515.388 451.559 515.997 453.028 517.08 454.112C518.164 455.195 519.632 455.804 521.164 455.806H619.181C620.713 455.804 622.181 455.195 623.265 454.112C624.348 453.028 624.957 451.559 624.959 450.027V382.895C624.957 381.363 624.348 379.894 623.265 378.811C622.181 377.728 620.713 377.118 619.181 377.116H521.164Z" fill="#E6E6E6"/>
<path d="M619.181 459.338H521.164C518.696 459.335 516.33 458.353 514.584 456.608C512.839 454.862 511.857 452.496 511.854 450.028V382.895C511.857 380.427 512.839 378.06 514.584 376.315C516.33 374.57 518.696 373.588 521.164 373.585H619.181C621.649 373.588 624.015 374.57 625.761 376.315C627.506 378.06 628.488 380.427 628.491 382.895V450.028C628.488 452.496 627.506 454.862 625.761 456.608C624.015 458.353 621.649 459.335 619.181 459.338Z" fill="white"/>
<path d="M579.364 395.438C579.93 391.903 578.327 389.3 574.076 387.831C569.848 384.162 563.598 383.282 559.847 389.158C558.332 389.068 556.842 389.567 555.686 390.549C554.529 391.531 553.797 392.922 553.642 394.431C550.196 398.436 554.022 413.135 555.156 418.736L561.204 418.676L573.278 418.557L579.364 418.497L581.683 405.364C583.092 401.546 582.518 398.197 579.364 395.438Z" fill="#E6E6E6"/>
<path d="M601.327 450.729C602.906 449.72 604.58 448.866 606.323 448.179L589.126 427.76L577.76 424.851C577.667 424.799 577.575 424.745 577.484 424.69L558.311 425.425L558.229 425.343L546.14 431.257L528.942 451.14C530.639 451.805 532.27 452.629 533.812 453.601L532.037 460.35H544.342L547.616 455.592H547.78C547.78 455.51 547.788 455.428 547.788 455.346L550.085 452.005C550.137 454.704 550.062 457.486 549.876 460.35H588.149C588.089 457.971 588.074 455.607 588.074 453.258L592.355 459.47C592.676 459 593.019 458.56 593.362 458.113L594.205 460.35H604.004L601.655 451.415C601.588 451.169 601.477 450.936 601.327 450.729Z" fill="#E6E6E6"/>
<path d="M619.181 307.514H521.164C517.93 307.51 514.829 306.224 512.542 303.937C510.255 301.65 508.969 298.549 508.965 295.315V228.182C508.969 224.948 510.255 221.847 512.542 219.56C514.829 217.273 517.93 215.987 521.164 215.983H619.181C622.415 215.987 625.516 217.273 627.803 219.56C630.09 221.847 631.376 224.948 631.38 228.182V295.315C631.376 298.549 630.09 301.65 627.803 303.937C625.516 306.224 622.415 307.51 619.181 307.514ZM521.164 222.404C519.632 222.406 518.164 223.015 517.08 224.098C515.997 225.182 515.388 226.65 515.386 228.182V295.315C515.388 296.847 515.997 298.316 517.08 299.399C518.164 300.482 519.632 301.092 521.164 301.093H619.181C620.713 301.092 622.181 300.482 623.265 299.399C624.348 298.316 624.957 296.847 624.959 295.315V228.182C624.957 226.65 624.348 225.182 623.265 224.098C622.181 223.015 620.713 222.406 619.181 222.404H521.164Z" fill="#E6E6E6"/>
<path d="M619.181 304.625H521.164C518.696 304.622 516.33 303.64 514.584 301.895C512.839 300.15 511.857 297.783 511.854 295.315V228.183C511.857 225.714 512.839 223.348 514.584 221.603C516.33 219.857 518.696 218.875 521.164 218.873H619.181C621.649 218.875 624.015 219.857 625.761 221.603C627.506 223.348 628.488 225.714 628.491 228.183V295.315C628.488 297.783 627.506 300.15 625.761 301.895C624.015 303.64 621.649 304.622 619.181 304.625Z" fill="white"/>
<path d="M557.792 251.973C558.086 254.957 559.41 257.746 561.537 259.859C563.665 261.973 566.462 263.279 569.448 263.554C572.434 263.828 575.422 263.054 577.899 261.363C580.376 259.673 582.186 257.173 583.019 254.292C583.437 253.857 588.066 248.91 586.39 244.974C585.563 242.839 585.102 240.58 585.026 238.291C584.928 236.809 583.948 235.293 580.835 234.501C580.835 234.501 575.492 227.668 568.231 231.251C568.231 231.251 564.711 230.646 562.101 234.298C562.101 234.298 559.514 232.772 558.422 235.477C558.422 235.477 555.387 240.995 556.504 246.623C556.832 248.429 557.262 250.215 557.792 251.973Z" fill="#E6E6E6"/>
<path d="M605.004 298.661C602.809 288.775 600.061 285.478 600.061 285.478L599.014 284.721L597.386 283.549L597.271 283.464L597.252 283.482L586.281 278.243L578.801 271.304C578.021 270.582 576.999 270.177 575.936 270.169L563.857 270.078C563.199 270.073 562.549 270.221 561.958 270.509C561.367 270.798 560.851 271.219 560.451 271.741L556.627 276.708L541.85 281.318L540.081 282.296C540.081 282.296 535.138 288.889 535.138 294.93C535.138 296.3 534.826 300.351 534.349 305.795H605.721C605.658 303.403 605.418 301.018 605.004 298.661Z" fill="#E6E6E6"/>
<path d="M557.999 398.174H429.852C425.624 398.169 421.57 396.487 418.58 393.497C415.59 390.507 413.908 386.453 413.903 382.224V294.456C413.908 290.227 415.59 286.173 418.58 283.183C421.57 280.193 425.624 278.511 429.852 278.506H557.999C562.227 278.511 566.281 280.193 569.271 283.183C572.261 286.173 573.943 290.227 573.948 294.456V382.224C573.943 386.453 572.261 390.507 569.271 393.497C566.281 396.487 562.227 398.169 557.999 398.174ZM429.852 286.901C427.849 286.903 425.929 287.7 424.513 289.116C423.096 290.532 422.3 292.453 422.297 294.456V382.224C422.3 384.227 423.096 386.148 424.513 387.564C425.929 388.98 427.849 389.777 429.852 389.779H557.999C560.002 389.777 561.922 388.98 563.338 387.564C564.755 386.148 565.551 384.227 565.554 382.224V294.456C565.551 292.453 564.755 290.532 563.338 289.116C561.922 287.7 560.002 286.903 557.999 286.901H429.852Z" fill="#E6E6E6"/>
<path d="M557.997 282.283H429.853C426.625 282.287 423.531 283.571 421.248 285.854C418.966 288.136 417.682 291.23 417.677 294.458V382.227C417.682 385.454 418.967 388.548 421.249 390.829C423.532 393.11 426.626 394.393 429.853 394.396H557.997C561.224 394.393 564.318 393.11 566.601 390.829C568.883 388.548 570.168 385.454 570.172 382.227V294.458C570.168 291.23 568.884 288.136 566.602 285.854C564.319 283.571 561.225 282.287 557.997 282.283Z" fill="white"/>
<path d="M516.469 318.974C521.995 318.974 526.476 314.494 526.476 308.967C526.476 303.441 521.995 298.96 516.469 298.96C510.942 298.96 506.462 303.441 506.462 308.967C506.462 314.494 510.942 318.974 516.469 318.974Z" fill="#2F2E41"/>
<path d="M495.911 352.98C509.912 352.98 521.262 341.63 521.262 327.629C521.262 313.628 509.912 302.277 495.911 302.277C481.909 302.277 470.559 313.628 470.559 327.629C470.559 341.63 481.909 352.98 495.911 352.98Z" fill="#2F2E41"/>
<path d="M491.506 354.521C502.884 354.521 512.107 345.298 512.107 333.921C512.107 322.543 502.884 313.32 491.506 313.32C480.129 313.32 470.905 322.543 470.905 333.921C470.905 345.298 480.129 354.521 491.506 354.521Z" fill="#9E616A"/>
<path d="M483.74 308.266C487.742 306.902 492.037 306.638 496.175 307.503C500.314 308.367 504.144 310.327 507.266 313.179C510.387 316.03 512.686 319.667 513.92 323.711C515.155 327.755 515.28 332.056 514.284 336.164C503.465 336.456 492.262 336.028 482.209 329.669L481.035 322.779L478.106 328.761C474.476 329.38 470.883 329.788 468.109 326.521C468.889 322.376 470.743 318.509 473.486 315.305C476.229 312.102 479.765 309.674 483.74 308.266Z" fill="#2F2E41"/>
<path d="M531.467 284.476C538.911 282.882 547.062 286.222 551.605 292.331C556.148 298.439 557.062 306.938 554.34 314.048C551.563 321.3 545.566 326.743 539.959 332.116C534.352 337.489 528.708 343.489 527.025 351.07C525.813 356.531 526.816 362.249 529.813 366.971C532.811 371.694 537.56 375.034 543.017 376.261C535.995 377.593 528.681 378.916 521.784 377.038C514.888 375.159 508.581 369.053 508.977 361.917C509.262 356.775 512.772 352.48 515.826 348.333C520.8 341.575 524.94 334.241 528.157 326.492C529.692 322.793 531.034 318.843 530.604 314.862C530.215 311.896 528.883 309.134 526.805 306.982C524.727 304.83 522.013 303.403 519.062 302.911L517.221 300.327C517.835 292.739 524.023 286.069 531.467 284.476Z" fill="#2F2E41"/>
<path d="M538.77 393.829C537.436 380.232 529.897 380.766 529.897 380.766L509.99 376.877L501.27 362.4L479.381 361.546L471.589 375.209L455.578 377.21L455.564 377.437C453.977 377.557 448.253 378.811 447.105 390.493C446.998 391.567 446.852 392.881 446.665 394.396H538.83C538.81 394.196 538.79 394.009 538.77 393.829Z" fill="#2F2E41"/>
</svg>
